<?xml version="1.0" encoding="utf-8"?>
<!-- Generator: Adobe Illustrator 16.0.0, SVG Export Plug-In . SVG Version: 6.00 Build 0)  -->
<!DOCTYPE svg PUBLIC "-//W3C//DTD SVG 1.1//EN" "http://www.w3.org/Graphics/SVG/1.1/DTD/svg11.dtd">
<svg version="1.1" id="Layer_1" xmlns="http://www.w3.org/2000/svg" xmlns:xlink="http://www.w3.org/1999/xlink" x="0px" y="0px"
	 width="789.214px" height="120.25px" viewBox="0 0 789.214 120.25" enable-background="new 0 0 789.214 120.25"
	 xml:space="preserve">
<g>
	<path fill="#FFFFFF" d="M31.2,95.16V50.31c0-5.113-1.647-7.67-4.94-7.67c-1.3,0-2.427,0.24-3.38,0.715
		c-0.955,0.478-1.907,1.105-2.86,1.885v49.92H0V8.19l20.02-7.8v30.42c1.732-1.473,3.66-2.73,5.785-3.77
		c2.123-1.04,4.831-1.56,8.125-1.56c5.72,0,10.031,1.712,12.935,5.135c2.903,3.425,4.355,8.82,4.355,16.185v48.36H31.2z"/>
	<path fill="#FFFFFF" d="M83.589,66.82c0.26,5.46,1.083,9.164,2.47,11.113c1.385,1.951,3.205,2.926,5.46,2.926
		c1.993,0,3.812-0.52,5.46-1.561c1.645-1.039,3.51-3.074,5.59-6.109l11.83,9.359c-1.475,2.08-2.99,3.988-4.55,5.721
		c-1.56,1.734-3.272,3.229-5.135,4.484c-1.865,1.258-3.965,2.211-6.305,2.86c-2.34,0.649-4.94,0.976-7.8,0.976
		c-8.495,0-14.907-3.141-19.24-9.426c-4.334-6.283-6.5-14.885-6.5-25.805c0-11.786,2.21-20.713,6.63-26.78
		c4.42-6.065,10.79-9.1,19.11-9.1c8.146,0,14.343,3.013,18.59,9.035c4.246,6.025,6.37,15.19,6.37,27.496v4.811H83.589z
		 M97.369,53.69c-0.26-4.765-0.932-8.145-2.015-10.14c-1.085-1.993-2.795-2.99-5.135-2.99c-1.995,0-3.51,0.933-4.55,2.795
		c-1.04,1.865-1.735,5.31-2.08,10.335H97.369z"/>
	<path fill="#FFFFFF" d="M165.877,48.23c-1.3-1.251-2.623-2.259-3.965-3.018c-1.344-0.76-2.925-1.142-4.745-1.142
		c-1.995,0-3.64,0.479-4.94,1.434c-1.3,0.957-2.167,2.693-2.6,5.212V95.16h-20.02V26.872h20.02v4.16
		c1.56-1.721,3.27-3.076,5.135-4.067c1.863-0.989,3.965-1.485,6.305-1.485c1.993,0,3.618,0.175,4.875,0.52
		c1.255,0.348,2.405,0.78,3.445,1.3L165.877,48.23z"/>
	<path fill="#FFFFFF" d="M232.826,60.71c0,12.396-1.637,21.474-4.91,27.235c-3.272,5.765-8.005,8.646-14.201,8.646
		c-2.6,0-4.897-0.521-6.89-1.561c-1.995-1.04-3.77-2.253-5.33-3.642v3.771h-20.02V8.19l20.02-7.8l0.051,30.55
		c1.737-1.56,3.583-2.86,5.539-3.9c1.954-1.04,4.365-1.56,7.233-1.56c5.821,0,10.361,2.86,13.62,8.58
		C231.197,39.78,232.826,48.665,232.826,60.71z M212.806,61.23c0-4.072-0.11-7.346-0.325-9.815c-0.217-2.47-0.564-4.375-1.04-5.72
		c-0.477-1.343-1.062-2.23-1.755-2.665c-0.695-0.433-1.518-0.65-2.47-0.65c-1.214,0-2.254,0.217-3.12,0.65
		c-0.868,0.435-1.735,0.997-2.6,1.689v32.5c0.78,0.695,1.625,1.28,2.535,1.757c0.91,0.477,2.015,0.715,3.315,0.715
		c0.865,0,1.645-0.195,2.34-0.586c0.692-0.39,1.278-1.234,1.755-2.535c0.476-1.299,0.823-3.162,1.04-5.59
		C212.696,68.555,212.806,65.305,212.806,61.23z"/>
	<path fill="#FFFFFF" d="M263.636,66.82c0.26,5.46,1.083,9.164,2.47,11.113c1.385,1.951,3.205,2.926,5.46,2.926
		c1.993,0,3.812-0.52,5.46-1.561c1.645-1.039,3.51-3.074,5.59-6.109l11.83,9.359c-1.475,2.08-2.99,3.988-4.55,5.721
		c-1.56,1.734-3.272,3.229-5.135,4.484c-1.865,1.258-3.965,2.211-6.305,2.86s-4.94,0.976-7.8,0.976
		c-8.495,0-14.907-3.141-19.24-9.426c-4.334-6.283-6.5-14.885-6.5-25.805c0-11.786,2.21-20.713,6.63-26.78
		c4.42-6.065,10.79-9.1,19.11-9.1c8.146,0,14.343,3.013,18.59,9.035c4.246,6.025,6.37,15.19,6.37,27.496v4.811H263.636z
		 M277.416,53.69c-0.26-4.765-0.932-8.145-2.015-10.14c-1.085-1.993-2.795-2.99-5.135-2.99c-1.995,0-3.51,0.933-4.55,2.795
		c-1.04,1.865-1.735,5.31-2.08,10.335H277.416z"/>
	<path fill="#FFFFFF" d="M345.924,48.23c-1.3-1.251-2.623-2.259-3.965-3.018c-1.344-0.76-2.925-1.142-4.745-1.142
		c-1.995,0-3.64,0.479-4.94,1.434c-1.3,0.957-2.167,2.693-2.6,5.212V95.16h-20.02V26.872h20.02v4.16
		c1.56-1.721,3.27-3.076,5.135-4.067c1.863-0.989,3.965-1.485,6.305-1.485c1.993,0,3.618,0.175,4.875,0.52
		c1.255,0.348,2.405,0.78,3.445,1.3L345.924,48.23z"/>
	<path fill="#FFFFFF" d="M397.014,93.859c-1.996,0.867-4.076,1.537-6.241,2.016c-2.167,0.477-4.55,0.716-7.15,0.716
		c-5.287,0-9.274-1.431-11.96-4.291c-2.687-2.858-4.03-7.495-4.03-13.909V43.42h-7.54V26.91h7.54V8.06l19.5-7.67v26.52h11.57v16.51
		h-11.57v29.9c0,2.08,0.39,3.555,1.17,4.42c0.78,0.867,1.905,1.3,3.38,1.3c1.385,0,2.621-0.195,3.706-0.585
		c1.082-0.391,2.358-1.061,3.834-2.016L397.014,93.859z"/>
	<path fill="#FFFFFF" d="M504.13,60.71c0,12.396-1.637,21.474-4.91,27.235c-3.271,5.765-8.004,8.646-14.199,8.646
		c-2.602,0-4.896-0.521-6.891-1.561s-3.77-2.253-5.33-3.642v21.062l-20.02,7.8V26.91h20.02l0.051,4.03
		c1.736-1.56,3.584-2.86,5.539-3.9s4.365-1.56,7.232-1.56c5.822,0,10.363,2.86,13.621,8.58S504.13,48.665,504.13,60.71z
		 M484.111,61.23c0-4.072-0.109-7.346-0.326-9.815c-0.217-2.47-0.564-4.375-1.039-5.72c-0.479-1.343-1.062-2.23-1.756-2.665
		c-0.693-0.433-1.518-0.65-2.471-0.65c-1.215,0-2.254,0.217-3.119,0.65c-0.867,0.435-1.734,0.997-2.602,1.689v32.5
		c0.781,0.695,1.625,1.28,2.535,1.757s2.016,0.715,3.314,0.715c0.865,0,1.646-0.195,2.342-0.586c0.691-0.39,1.275-1.234,1.754-2.535
		c0.477-1.299,0.822-3.162,1.041-5.59C484.001,68.555,484.111,65.305,484.111,61.23z"/>
	<path fill="#FFFFFF" d="M539.88,10.14c0,3.12-1.041,5.635-3.121,7.54c-2.08,1.907-4.809,2.86-8.188,2.86
		c-3.295,0-6.004-0.953-8.125-2.86c-2.125-1.905-3.188-4.42-3.188-7.54c0-3.033,1.062-5.48,3.188-7.345
		C522.568,0.933,525.275,0,528.57,0c3.381,0,6.109,0.933,8.189,2.795C538.839,4.66,539.88,7.107,539.88,10.14z M518.56,95.16V26.91
		h20.021v68.25H518.56z"/>
	<path fill="#FFFFFF" d="M586.808,95.16l-2.471-6.5c-0.867-2.253-1.799-4.657-2.795-7.215c-0.996-2.557-1.842-4.961-2.535-7.217
		c-0.693,2.256-1.494,4.66-2.402,7.217c-0.91,2.558-1.801,4.962-2.666,7.215l-2.471,6.5h-20.67l18.07-35.23l-16.381-33.02h21.189
		l1.039,2.73c2.428,6.24,4.074,11.615,4.941,16.12c0.52-2.253,1.189-4.745,2.014-7.475s1.799-5.61,2.926-8.645l1.039-2.73h20.67
		l-16.51,32.24l18.201,36.01H586.808z"/>
	<path fill="#FFFFFF" d="M651.027,95.16V50.31c0-5.113-1.646-7.67-4.939-7.67c-1.301,0-2.428,0.24-3.381,0.715
		c-0.955,0.478-1.906,1.105-2.859,1.885v49.92h-20.02V26.91h20.02v3.9c1.732-1.473,3.66-2.73,5.785-3.77
		c2.123-1.04,4.83-1.56,8.125-1.56c5.721,0,10.029,1.712,12.936,5.135c2.902,3.425,4.354,8.82,4.354,16.185v48.36H651.027z"/>
	<path fill="#FFFFFF" d="M703.416,66.82c0.26,5.46,1.082,9.164,2.471,11.113c1.385,1.951,3.205,2.926,5.459,2.926
		c1.992,0,3.812-0.52,5.461-1.561c1.646-1.039,3.51-3.074,5.59-6.109l11.83,9.359c-1.475,2.08-2.99,3.988-4.551,5.721
		c-1.561,1.734-3.271,3.229-5.135,4.484c-1.865,1.258-3.965,2.211-6.305,2.86c-2.342,0.649-4.939,0.976-7.801,0.976
		c-8.494,0-14.906-3.141-19.24-9.426c-4.334-6.283-6.5-14.885-6.5-25.805c0-11.786,2.211-20.713,6.631-26.78
		c4.42-6.065,10.789-9.1,19.109-9.1c8.146,0,14.344,3.013,18.59,9.035c4.246,6.025,6.371,15.19,6.371,27.496v4.811H703.416z
		 M717.195,53.69c-0.26-4.765-0.932-8.145-2.016-10.14c-1.084-1.993-2.795-2.99-5.135-2.99c-1.994,0-3.51,0.933-4.551,2.795
		c-1.039,1.865-1.734,5.31-2.078,10.335H717.195z"/>
	<path fill="#FFFFFF" d="M785.703,48.23c-1.299-1.251-2.621-2.259-3.965-3.018c-1.346-0.76-2.926-1.142-4.744-1.142
		c-1.994,0-3.641,0.479-4.939,1.434c-1.301,0.957-2.168,2.693-2.602,5.212V95.16h-20.02V26.872h20.02v4.16
		c1.561-1.721,3.271-3.076,5.137-4.067c1.861-0.989,3.965-1.485,6.305-1.485c1.992,0,3.617,0.175,4.875,0.52
		c1.254,0.348,2.404,0.78,3.445,1.3L785.703,48.23z"/>
</g>
</svg>
